<mxfile host="app.diagrams.net" modified="2021-06-03T13:14:06.900Z" agent="5.0 (Windows NT 10.0; Win64; x64) AppleWebKit/537.36 (KHTML, like Gecko) Chrome/90.0.4430.85 Safari/537.36" etag="R3qevnOKuH8Ab8Y1pHtY" version="14.6.6" type="github">
  <diagram id="19G9kQsgrVF7UHvziEIp" name="第 1 页">
    <mxGraphModel dx="870" dy="595" grid="1" gridSize="10" guides="1" tooltips="1" connect="1" arrows="1" fold="1" page="1" pageScale="1" pageWidth="827" pageHeight="1169" math="0" shadow="0">
      <root>
        <mxCell id="0" />
        <mxCell id="1" parent="0" />
        <mxCell id="Lpqcmv6y5kb9djRYQVrn-2" value="" style="rounded=0;whiteSpace=wrap;html=1;fillColor=#f8cecc;strokeColor=#b85450;" vertex="1" parent="1">
          <mxGeometry x="41.25" y="390" width="697.5" height="440" as="geometry" />
        </mxCell>
        <mxCell id="Lpqcmv6y5kb9djRYQVrn-4" value="" style="endArrow=none;html=1;strokeWidth=5;" edge="1" parent="1">
          <mxGeometry width="50" height="50" relative="1" as="geometry">
            <mxPoint x="390" y="570" as="sourcePoint" />
            <mxPoint x="389.5" y="390" as="targetPoint" />
          </mxGeometry>
        </mxCell>
        <mxCell id="Lpqcmv6y5kb9djRYQVrn-5" value="" style="endArrow=none;html=1;strokeWidth=5;" edge="1" parent="1">
          <mxGeometry width="50" height="50" relative="1" as="geometry">
            <mxPoint x="390" y="830" as="sourcePoint" />
            <mxPoint x="389.5" y="650" as="targetPoint" />
          </mxGeometry>
        </mxCell>
        <mxCell id="Lpqcmv6y5kb9djRYQVrn-6" value="" style="shape=umlActor;verticalLabelPosition=bottom;verticalAlign=top;html=1;outlineConnect=0;" vertex="1" parent="1">
          <mxGeometry x="375" y="580" width="30" height="60" as="geometry" />
        </mxCell>
        <mxCell id="Lpqcmv6y5kb9djRYQVrn-7" value="" style="html=1;verticalAlign=bottom;startArrow=circle;startFill=1;endArrow=open;startSize=6;endSize=8;strokeWidth=5;" edge="1" parent="1">
          <mxGeometry x="-0.3846" y="-82" width="80" relative="1" as="geometry">
            <mxPoint x="320" y="540" as="sourcePoint" />
            <mxPoint x="230" y="560" as="targetPoint" />
            <mxPoint as="offset" />
          </mxGeometry>
        </mxCell>
        <mxCell id="Lpqcmv6y5kb9djRYQVrn-13" value="" style="html=1;verticalAlign=bottom;startArrow=circle;startFill=1;endArrow=open;startSize=6;endSize=8;strokeWidth=5;" edge="1" parent="1">
          <mxGeometry x="-0.3846" y="-82" width="80" relative="1" as="geometry">
            <mxPoint x="220" y="730" as="sourcePoint" />
            <mxPoint x="150" y="700" as="targetPoint" />
            <mxPoint as="offset" />
          </mxGeometry>
        </mxCell>
        <mxCell id="Lpqcmv6y5kb9djRYQVrn-14" value="" style="html=1;verticalAlign=bottom;startArrow=circle;startFill=1;endArrow=open;startSize=6;endSize=8;strokeWidth=5;" edge="1" parent="1">
          <mxGeometry x="-0.3846" y="-82" width="80" relative="1" as="geometry">
            <mxPoint x="80" y="730" as="sourcePoint" />
            <mxPoint x="110" y="670" as="targetPoint" />
            <mxPoint as="offset" />
          </mxGeometry>
        </mxCell>
        <mxCell id="Lpqcmv6y5kb9djRYQVrn-15" value="" style="html=1;verticalAlign=bottom;startArrow=circle;startFill=1;endArrow=open;startSize=6;endSize=8;strokeWidth=5;" edge="1" parent="1">
          <mxGeometry x="-0.3846" y="-82" width="80" relative="1" as="geometry">
            <mxPoint x="280" y="600" as="sourcePoint" />
            <mxPoint x="250" y="670" as="targetPoint" />
            <mxPoint as="offset" />
          </mxGeometry>
        </mxCell>
        <mxCell id="Lpqcmv6y5kb9djRYQVrn-16" value="" style="html=1;verticalAlign=bottom;startArrow=circle;startFill=1;endArrow=open;startSize=6;endSize=8;strokeWidth=5;" edge="1" parent="1">
          <mxGeometry x="-0.3846" y="-82" width="80" relative="1" as="geometry">
            <mxPoint x="295" y="710" as="sourcePoint" />
            <mxPoint x="220" y="760" as="targetPoint" />
            <mxPoint as="offset" />
          </mxGeometry>
        </mxCell>
        <mxCell id="Lpqcmv6y5kb9djRYQVrn-17" value="" style="html=1;verticalAlign=bottom;startArrow=circle;startFill=1;endArrow=open;startSize=6;endSize=8;strokeWidth=5;" edge="1" parent="1">
          <mxGeometry x="-0.3846" y="-82" width="80" relative="1" as="geometry">
            <mxPoint x="310" y="820" as="sourcePoint" />
            <mxPoint x="310" y="750" as="targetPoint" />
            <mxPoint as="offset" />
          </mxGeometry>
        </mxCell>
        <mxCell id="Lpqcmv6y5kb9djRYQVrn-18" value="" style="html=1;verticalAlign=bottom;startArrow=circle;startFill=1;endArrow=open;startSize=6;endSize=8;strokeWidth=5;" edge="1" parent="1">
          <mxGeometry x="-0.3846" y="-82" width="80" relative="1" as="geometry">
            <mxPoint x="145" y="790" as="sourcePoint" />
            <mxPoint x="120" y="730" as="targetPoint" />
            <mxPoint as="offset" />
          </mxGeometry>
        </mxCell>
        <mxCell id="Lpqcmv6y5kb9djRYQVrn-19" value="" style="html=1;verticalAlign=bottom;startArrow=circle;startFill=1;endArrow=open;startSize=6;endSize=8;strokeWidth=5;" edge="1" parent="1">
          <mxGeometry x="-0.3846" y="-82" width="80" relative="1" as="geometry">
            <mxPoint x="330" y="670" as="sourcePoint" />
            <mxPoint x="345" y="750" as="targetPoint" />
            <mxPoint as="offset" />
          </mxGeometry>
        </mxCell>
        <mxCell id="Lpqcmv6y5kb9djRYQVrn-20" value="" style="html=1;verticalAlign=bottom;startArrow=circle;startFill=1;endArrow=open;startSize=6;endSize=8;strokeWidth=5;" edge="1" parent="1">
          <mxGeometry x="-0.3846" y="-82" width="80" relative="1" as="geometry">
            <mxPoint x="220" y="470" as="sourcePoint" />
            <mxPoint x="155" y="440" as="targetPoint" />
            <mxPoint as="offset" />
          </mxGeometry>
        </mxCell>
        <mxCell id="Lpqcmv6y5kb9djRYQVrn-22" value="" style="html=1;verticalAlign=bottom;startArrow=circle;startFill=1;endArrow=open;startSize=6;endSize=8;strokeWidth=5;" edge="1" parent="1">
          <mxGeometry x="-0.3846" y="-82" width="80" relative="1" as="geometry">
            <mxPoint x="90" y="500" as="sourcePoint" />
            <mxPoint x="105" y="430" as="targetPoint" />
            <mxPoint as="offset" />
          </mxGeometry>
        </mxCell>
        <mxCell id="Lpqcmv6y5kb9djRYQVrn-23" value="" style="html=1;verticalAlign=bottom;startArrow=circle;startFill=1;endArrow=open;startSize=6;endSize=8;strokeWidth=5;" edge="1" parent="1">
          <mxGeometry x="-0.3846" y="-82" width="80" relative="1" as="geometry">
            <mxPoint x="270" y="430" as="sourcePoint" />
            <mxPoint x="295" y="500" as="targetPoint" />
            <mxPoint as="offset" />
          </mxGeometry>
        </mxCell>
        <mxCell id="Lpqcmv6y5kb9djRYQVrn-24" value="" style="html=1;verticalAlign=bottom;startArrow=circle;startFill=1;endArrow=open;startSize=6;endSize=8;strokeWidth=5;" edge="1" parent="1">
          <mxGeometry x="-0.3846" y="-82" width="80" relative="1" as="geometry">
            <mxPoint x="210" y="520" as="sourcePoint" />
            <mxPoint x="170" y="590" as="targetPoint" />
            <mxPoint as="offset" />
          </mxGeometry>
        </mxCell>
        <mxCell id="Lpqcmv6y5kb9djRYQVrn-25" value="" style="html=1;verticalAlign=bottom;startArrow=circle;startFill=1;endArrow=open;startSize=6;endSize=8;strokeWidth=5;" edge="1" parent="1">
          <mxGeometry x="-0.3846" y="-82" width="80" relative="1" as="geometry">
            <mxPoint x="230" y="630" as="sourcePoint" />
            <mxPoint x="180" y="600" as="targetPoint" />
            <mxPoint as="offset" />
          </mxGeometry>
        </mxCell>
        <mxCell id="Lpqcmv6y5kb9djRYQVrn-26" value="" style="html=1;verticalAlign=bottom;startArrow=circle;startFill=1;endArrow=open;startSize=6;endSize=8;strokeWidth=5;" edge="1" parent="1">
          <mxGeometry x="-0.3846" y="-82" width="80" relative="1" as="geometry">
            <mxPoint x="145" y="630" as="sourcePoint" />
            <mxPoint x="120" y="580" as="targetPoint" />
            <mxPoint as="offset" />
          </mxGeometry>
        </mxCell>
        <mxCell id="Lpqcmv6y5kb9djRYQVrn-27" value="" style="html=1;verticalAlign=bottom;startArrow=circle;startFill=1;endArrow=open;startSize=6;endSize=8;strokeWidth=5;" edge="1" parent="1">
          <mxGeometry x="-0.3846" y="-82" width="80" relative="1" as="geometry">
            <mxPoint x="320" y="570" as="sourcePoint" />
            <mxPoint x="310" y="650" as="targetPoint" />
            <mxPoint as="offset" />
          </mxGeometry>
        </mxCell>
        <mxCell id="Lpqcmv6y5kb9djRYQVrn-28" value="" style="html=1;verticalAlign=bottom;startArrow=circle;startFill=1;endArrow=open;startSize=6;endSize=8;strokeWidth=5;strokeColor=#FF0000;" edge="1" parent="1">
          <mxGeometry x="-0.3846" y="-82" width="80" relative="1" as="geometry">
            <mxPoint x="500" y="610" as="sourcePoint" />
            <mxPoint x="530" y="550" as="targetPoint" />
            <mxPoint as="offset" />
          </mxGeometry>
        </mxCell>
        <mxCell id="Lpqcmv6y5kb9djRYQVrn-29" value="" style="html=1;verticalAlign=bottom;startArrow=circle;startFill=1;endArrow=open;startSize=6;endSize=8;strokeWidth=5;strokeColor=#FF0000;" edge="1" parent="1">
          <mxGeometry x="-0.3846" y="-82" width="80" relative="1" as="geometry">
            <mxPoint x="531" y="640" as="sourcePoint" />
            <mxPoint x="592" y="610" as="targetPoint" />
            <mxPoint as="offset" />
          </mxGeometry>
        </mxCell>
        <mxCell id="Lpqcmv6y5kb9djRYQVrn-30" value="" style="html=1;verticalAlign=bottom;startArrow=circle;startFill=1;endArrow=open;startSize=6;endSize=8;strokeWidth=5;strokeColor=#FF0000;" edge="1" parent="1">
          <mxGeometry x="-0.3846" y="-82" width="80" relative="1" as="geometry">
            <mxPoint x="541" y="730" as="sourcePoint" />
            <mxPoint x="611" y="720" as="targetPoint" />
            <mxPoint as="offset" />
          </mxGeometry>
        </mxCell>
      </root>
    </mxGraphModel>
  </diagram>
</mxfile>
